
<svg xmlns="http://www.w3.org/2000/svg" xmlns:xlink="http://www.w3.org/1999/xlink" viewBox="0 0 155.22 201.38"><defs><style>.cls-1{fill:#fff;}.cls-2{fill-rule:evenodd;fill:url(#linear-gradient);}</style><linearGradient id="linear-gradient" x1="23.96" y1="237.86" x2="139.57" y2="66.31" gradientTransform="matrix(1, 0, 0, -1, 0, 238)" gradientUnits="userSpaceOnUse"><stop offset="0" stop-color="#9802ff"/><stop offset="1" stop-color="#247fea"/></linearGradient></defs><g id="Layer_2" data-name="Layer 2"><g id="Layer_1-2" data-name="Layer 1"><path class="cls-1" d="M0,193.1H5.55v-9.71h5c7.06,0,11.27-4.33,11.27-9.7S17.59,164,10.53,164H0Zm5.55-14.95v-8.93h5c3.47,0,5.68,1.87,5.68,4.47s-2.21,4.46-5.68,4.46Zm28.63,15.3A11.18,11.18,0,1,0,23,182.27,11.18,11.18,0,0,0,34.18,193.45Zm.22-5.2c-3.29,0-5.63-2.52-5.63-6s2.34-6,5.63-6,5.63,2.51,5.63,6A5.63,5.63,0,0,1,34.4,188.25Zm14.47,4.85h5.55V160.82H48.87Zm23.39-21.67-4.6,12.27-4.85-12.27H57.26l7.67,19.46L61,201.38h5.55L77.8,171.43Zm9.68,21.67h6.59c9.83,0,15.68-6.54,15.68-14.56S98.36,164,88.53,164H81.94Zm2.86-2.73V166.71h3.73c7.8,0,12.56,5.2,12.56,11.83s-4.76,11.83-12.56,11.83Zm42.91-23.53V164H108.6V193.1h19.11v-2.86H111.46V179.71h9.14v-2.86h-9.14v-10Zm27.51,26.26-9.88-14.69L155.05,164H151.8l-8.06,12-8.1-12h-3.25l9.7,14.43-9.88,14.69h3.25l8.28-12.26L152,193.1Z"/><path class="cls-2" d="M88,16.81l5.9,3.4c13.74,7.93,33.11,19.11,33.89,19.68,1.18.86,1.29,1,0,1.73l-6.21,3.58S82.72,67.67,80.55,69,76.86,70.5,75,69.4c0,0-8.92-4.91-11-6.25l-.86-.53h0c-1.72-1-2.93-1.78-1.85-2.69A42.92,42.92,0,0,1,67,56.71c.67-.41,1.2-.79,1.65-1.12.76-.55,1.26-.92,1.8-.85.87.12,3.38,2,4.68,2.95l.38.3c1,.78,1.44,1.13,3.24.25,2-1,27.66-15.87,28.52-16.5s1.18-1.42.44-2c-.38-.27-6.75-4-13.23-7.71h0C88,28.31,81.46,24.51,80.71,24c-1.49-1-3.14-1.61-4.24-1-.27.17-2.1,1.21-4.72,2.72h0c-8.14,4.67-24,13.74-25,14.57s.44,1.35,1.92,2a14.47,14.47,0,0,1,1.89.94l.65.4c1.26.79,1.74,1.09,1,1.56s-6.09,3.93-7.39,5-1.72.82-2.82,0c-.7-.49-6.17-3.64-10.34-6h0c-2.44-1.41-4.43-2.55-4.75-2.76-.87-.55-1.42-1.1-.75-1.53s14.77-8.13,14.77-8.13S58.06,21.9,67.71,16.24L56.3,9.49,59.62,0ZM51.4,64.53V61.7c.41-.21,17.13-9.66,23.42-13.87,1.21-.83,3.38-1.26,4.59-.51a20.12,20.12,0,0,1,3.5,2.83c1.18,1.14,1.93.7,3,0s8.8-5.55,8.8-5.55-12.18-7-13.6-7.62-4.24-1.85-6.09-.75l-.58.34c-4.42,2.54-28.77,16.54-30.7,17.47A3.44,3.44,0,0,0,41.61,58c.24.72.78,1,1.85,1.56h0c.55.28,1.23.63,2.08,1.15C48,62.25,51.4,64.53,51.4,64.53Zm20.74,35.76-10-5.78,0-8.64-31.6-18v36.82l31.6,17.49L62,114.08l10.45,5.66v.09h.24v32.51l-10.12,1.91V135c-4.1-2.39-8.08-4.74-8.08-4.74S22.63,111.45,21.53,110.7l-.19-.13c-.92-.62-1-.68-1.22-1.6s0-36.39,0-36.39V50.85c0-1.18,1-.66,2,0,.5.34,12,7,23.44,13.6,11,6.38,22,12.72,23,13.36l1,.64h0c1.36.84,2.1,1.29,2.54,2.19C72.69,81.7,72.14,100.29,72.14,100.29ZM41.42,77.77l9.9,5.86-.12,9s24.44,13.71,25.74,14a4.4,4.4,0,0,0,2.71-.43v12.07a15.36,15.36,0,0,1-2.63,0,4.87,4.87,0,0,1-2.33-1.06h0c-.42-.27-.89-.58-1.44-.9-1.73-1-32.38-18.78-32.38-18.78Zm62.32-16.39a1.39,1.39,0,0,1-1.46,0h0c-.88-.43-.75-1,0-1.32h0c.58-.35,6.92-3.93,8.48-4.74l.06,0,.06,0h0A2.19,2.19,0,0,1,114,56.94c.12,1.46.55,37.1,0,39.1s-1.65,2.79-6,5.15c-2.34,1.26-5.32,3.13-7.63,4.57h0a29.21,29.21,0,0,1-3.65,2.15c-.35-.12-.43-11.28,0-11.83a29.36,29.36,0,0,1,4.18-2.23h0c1.17-.56,2.19-1,2.43-1.23.5-.39.54-.91.63-2h0l0-.33C104.05,88.85,103.74,61.38,103.74,61.38ZM93,85.87l7.39-3.93V71.36h0c0-1,0-1.32-1-.58-.65.44-4,2.39-7.21,4.27h0c-2.49,1.45-4.9,2.86-6,3.51-2.43,1.49-2.71,2-2.79,4.2,0,1.32,0,20.64,0,36.06h-.07v34.42l9.62,2V134.5l21.83-12.91s17.57-9.79,18.67-10.73,1.69-1.57,1.76-3c.07-1.23,0-41.41,0-52.76h0v-.28c0-1.52,0-2.47,0-2.64V52c0-1.27,0-1.82-1.42-1.29s-15.91,9-16.27,9.31-.22,3.48-.18,6h0c0,.78,0,1.49,0,2,0,2.24,0,3.65,0,3.65L124.76,68v35.91s-28,16.7-29.55,17.65-2,1.1-2.24,0c0-.16,0-.94-.06-2.19v-.58h0C92.83,110.4,93,85.87,93,85.87Z"/></g></g></svg>