<?xml version="1.0" standalone="no"?>
<!DOCTYPE svg PUBLIC "-//W3C//DTD SVG 20010904//EN"
 "http://www.w3.org/TR/2001/REC-SVG-20010904/DTD/svg10.dtd">
<svg version="1.0" xmlns="http://www.w3.org/2000/svg"
 width="700.000000pt" height="700.000000pt" viewBox="0 0 700.000000 700.000000"
 preserveAspectRatio="xMidYMid meet">
<metadata>
Created by potrace 1.14, written by Peter Selinger 2001-2017
</metadata>
<g transform="translate(0.000000,700.000000) scale(0.100000,-0.100000)"
fill="#000000" stroke="none">
<path d="M3417 6474 c-1 -1 -51 -4 -112 -8 -60 -3 -126 -8 -145 -11 -19 -3
-53 -7 -75 -10 -42 -5 -66 -9 -155 -26 -92 -17 -99 -19 -212 -49 -393 -107
-773 -303 -1103 -569 -99 -79 -349 -331 -424 -426 -34 -44 -68 -87 -74 -95
-18 -22 -131 -189 -159 -235 -23 -36 -57 -98 -124 -223 -38 -72 -130 -300
-167 -417 -51 -161 -74 -255 -102 -422 -3 -18 -7 -45 -9 -60 -5 -29 -10 -77
-22 -193 -7 -71 -7 -433 -1 -465 3 -11 8 -54 12 -95 4 -41 9 -84 11 -95 2 -11
7 -40 10 -65 3 -25 13 -74 21 -110 8 -36 17 -78 20 -95 9 -56 95 -320 138
-426 298 -729 867 -1305 1595 -1617 108 -46 315 -118 369 -129 14 -2 28 -6 33
-9 4 -3 16 -7 27 -9 10 -2 61 -12 112 -23 52 -11 110 -23 129 -26 19 -2 58 -8
85 -12 28 -3 59 -8 70 -10 32 -6 254 -18 335 -17 70 0 273 10 330 17 120 13
280 42 380 68 41 10 83 21 93 23 47 10 222 71 322 112 462 188 880 502 1198
898 77 97 237 326 237 340 0 3 11 22 23 43 114 181 268 569 310 782 3 14 12
54 20 90 15 63 20 90 33 195 3 28 8 57 9 66 8 42 18 236 18 349 0 162 -11 307
-33 440 -5 30 -12 71 -15 90 -61 364 -225 768 -450 1105 -125 187 -204 284
-365 446 -209 210 -384 347 -625 486 -251 146 -594 279 -846 328 -212 42 -266
50 -429 61 -86 5 -289 12 -293 8z"/>
</g>
</svg>
