<?xml version="1.0" encoding="UTF-8"?>
<svg xmlns="http://www.w3.org/2000/svg" xmlns:xlink="http://www.w3.org/1999/xlink" width="79pt" height="31pt" viewBox="0 0 79 31" version="1.1">
<defs>
<linearGradient id="linear0" gradientUnits="userSpaceOnUse" x1="0.000000568882" y1="1.5" x2="62" y2="93.5" gradientTransform="matrix(0.364055,0,0,0.366951,0,0)">
<stop offset="0" style="stop-color:rgb(59.607843%,0.784314%,100%);stop-opacity:1;"/>
<stop offset="1" style="stop-color:rgb(14.117647%,49.803922%,91.764706%);stop-opacity:1;"/>
</linearGradient>
</defs>
<g id="surface1">
<path style=" stroke:none;fill-rule:nonzero;fill:rgb(100%,100%,100%);fill-opacity:1;" d="M 30.183594 20.183594 L 31.859375 20.183594 L 31.859375 17.222656 L 33.367188 17.222656 C 35.503906 17.222656 36.777344 15.902344 36.777344 14.265625 C 36.777344 12.640625 35.503906 11.316406 33.367188 11.316406 L 30.183594 11.316406 Z M 31.859375 15.625 L 31.859375 12.902344 L 33.367188 12.902344 C 34.417969 12.902344 35.085938 13.472656 35.085938 14.265625 C 35.085938 15.054688 34.417969 15.625 33.367188 15.625 Z M 40.523438 20.289062 C 42.394531 20.289062 43.90625 18.753906 43.90625 16.878906 C 43.90625 15.003906 42.394531 13.472656 40.523438 13.472656 C 38.660156 13.472656 37.140625 15.003906 37.140625 16.878906 C 37.140625 18.753906 38.660156 20.289062 40.523438 20.289062 Z M 40.589844 18.703125 C 39.59375 18.703125 38.882812 17.9375 38.882812 16.878906 C 38.882812 15.824219 39.59375 15.054688 40.589844 15.054688 C 41.570312 15.054688 42.292969 15.824219 42.292969 16.878906 C 42.292969 17.9375 41.570312 18.703125 40.589844 18.703125 Z M 44.964844 20.183594 L 46.644531 20.183594 L 46.644531 10.339844 L 44.964844 10.339844 Z M 52.039062 13.578125 L 50.648438 17.316406 L 49.179688 13.578125 L 47.503906 13.578125 L 49.824219 19.507812 L 48.632812 22.707031 L 50.308594 22.707031 L 53.714844 13.578125 Z M 54.96875 20.183594 L 56.960938 20.183594 C 59.933594 20.183594 61.703125 18.1875 61.703125 15.742188 C 61.703125 13.285156 59.933594 11.304688 56.960938 11.304688 L 54.96875 11.304688 Z M 55.832031 19.347656 L 55.832031 12.136719 L 56.960938 12.136719 C 59.320312 12.136719 60.761719 13.722656 60.761719 15.742188 C 60.761719 17.765625 59.320312 19.347656 56.960938 19.347656 Z M 68.8125 12.175781 L 68.8125 11.304688 L 63.03125 11.304688 L 63.03125 20.183594 L 68.8125 20.183594 L 68.8125 19.308594 L 63.894531 19.308594 L 63.894531 16.101562 L 66.660156 16.101562 L 66.660156 15.226562 L 63.894531 15.226562 L 63.894531 12.175781 Z M 77.132812 20.183594 L 74.144531 15.703125 L 77.078125 11.304688 L 76.097656 11.304688 L 73.660156 14.964844 L 71.207031 11.304688 L 70.226562 11.304688 L 73.160156 15.703125 L 70.171875 20.183594 L 71.15625 20.183594 L 73.660156 16.445312 L 76.148438 20.183594 Z M 77.132812 20.183594 "/>
<path style=" stroke:none;fill-rule:evenodd;fill:url(#linear0);" d="M 13.28125 3.308594 C 13.628906 3.507812 14.015625 3.734375 14.433594 3.976562 C 17.113281 5.535156 20.898438 7.738281 21.050781 7.851562 C 21.277344 8.019531 21.300781 8.042969 21.050781 8.1875 C 20.796875 8.335938 19.835938 8.894531 19.835938 8.894531 C 19.835938 8.894531 12.242188 13.316406 11.820312 13.570312 C 11.398438 13.828125 11.097656 13.875 10.738281 13.65625 C 10.738281 13.65625 8.996094 12.691406 8.582031 12.425781 C 8.523438 12.390625 8.46875 12.355469 8.414062 12.324219 C 8.078125 12.117188 7.839844 11.972656 8.050781 11.792969 C 8.304688 11.578125 9.179688 11.160156 9.179688 11.160156 C 9.3125 11.082031 9.414062 11.003906 9.503906 10.941406 C 9.652344 10.828125 9.75 10.757812 9.855469 10.773438 C 10.023438 10.796875 10.515625 11.160156 10.769531 11.351562 C 10.796875 11.375 10.820312 11.390625 10.84375 11.410156 C 11.039062 11.566406 11.125 11.632812 11.472656 11.460938 C 11.867188 11.269531 16.875 8.335938 17.042969 8.214844 C 17.210938 8.082031 17.273438 7.933594 17.128906 7.828125 C 17.058594 7.773438 15.808594 7.046875 14.546875 6.308594 C 13.28125 5.570312 11.996094 4.824219 11.851562 4.726562 C 11.558594 4.53125 11.234375 4.410156 11.023438 4.53125 C 10.96875 4.566406 10.613281 4.769531 10.101562 5.066406 L 10.097656 5.066406 C 8.511719 5.984375 5.421875 7.769531 5.230469 7.933594 C 5.054688 8.085938 5.316406 8.203125 5.605469 8.332031 C 5.734375 8.386719 5.871094 8.449219 5.972656 8.515625 C 6.019531 8.542969 6.0625 8.570312 6.101562 8.59375 C 6.347656 8.75 6.441406 8.808594 6.289062 8.902344 C 6.121094 9.011719 5.097656 9.675781 4.847656 9.875 C 4.59375 10.078125 4.507812 10.039062 4.292969 9.882812 C 4.15625 9.785156 3.089844 9.167969 2.277344 8.695312 C 1.800781 8.417969 1.410156 8.191406 1.347656 8.152344 C 1.179688 8.042969 1.070312 7.933594 1.203125 7.851562 C 1.332031 7.765625 4.085938 6.25 4.085938 6.25 C 4.085938 6.25 7.425781 4.308594 9.3125 3.195312 L 7.082031 1.867188 L 7.734375 0 Z M 6.128906 12.699219 L 6.128906 12.140625 C 6.207031 12.101562 9.472656 10.242188 10.699219 9.414062 C 10.9375 9.25 11.359375 9.164062 11.597656 9.3125 C 11.835938 9.457031 12.050781 9.644531 12.28125 9.867188 C 12.511719 10.089844 12.65625 10.007812 12.871094 9.875 C 13.085938 9.746094 14.589844 8.785156 14.589844 8.785156 C 14.589844 8.785156 12.210938 7.417969 11.933594 7.285156 C 11.65625 7.164062 11.105469 6.921875 10.746094 7.136719 L 10.632812 7.207031 C 9.769531 7.703125 5.015625 10.460938 4.640625 10.640625 C 4.238281 10.835938 4.148438 11.199219 4.21875 11.414062 C 4.261719 11.558594 4.367188 11.613281 4.578125 11.722656 C 4.683594 11.777344 4.820312 11.847656 4.984375 11.949219 C 5.46875 12.25 6.128906 12.699219 6.128906 12.699219 Z M 10.179688 19.734375 L 8.222656 18.597656 L 8.214844 16.898438 L 2.046875 13.347656 L 2.046875 20.59375 L 8.214844 24.035156 L 8.191406 22.449219 L 10.230469 23.5625 L 10.230469 23.582031 L 10.28125 23.582031 L 10.28125 29.980469 L 8.304688 30.355469 L 8.304688 26.570312 C 7.503906 26.097656 6.726562 25.636719 6.726562 25.636719 C 6.726562 25.636719 0.511719 21.929688 0.296875 21.785156 L 0.261719 21.757812 C 0.0820312 21.636719 0.0625 21.625 0.0195312 21.445312 C -0.0273438 21.25 0.0195312 14.285156 0.0195312 14.285156 L 0.0195312 10.007812 C 0.0195312 9.773438 0.210938 9.875 0.40625 10.007812 C 0.503906 10.074219 2.746094 11.382812 4.980469 12.683594 C 7.136719 13.9375 9.28125 15.1875 9.480469 15.3125 C 9.550781 15.359375 9.621094 15.398438 9.679688 15.4375 C 9.945312 15.601562 10.089844 15.691406 10.179688 15.871094 C 10.285156 16.078125 10.179688 19.734375 10.179688 19.734375 Z M 4.179688 15.304688 L 6.113281 16.457031 L 6.089844 18.21875 C 6.089844 18.21875 10.859375 20.917969 11.113281 20.980469 C 11.367188 21.042969 11.640625 20.894531 11.640625 20.894531 L 11.640625 23.269531 C 11.640625 23.269531 11.359375 23.300781 11.128906 23.277344 C 10.972656 23.265625 10.84375 23.179688 10.675781 23.066406 C 10.59375 23.011719 10.503906 22.953125 10.394531 22.890625 C 10.054688 22.695312 4.070312 19.195312 4.070312 19.195312 Z M 16.347656 12.082031 C 16.347656 12.082031 16.238281 12.164062 16.0625 12.082031 L 16.058594 12.078125 C 15.886719 11.992188 15.910156 11.886719 16.0625 11.816406 C 16.175781 11.75 17.414062 11.042969 17.71875 10.882812 L 17.730469 10.878906 L 17.742188 10.871094 C 18.003906 10.742188 18.332031 10.917969 18.355469 11.207031 C 18.378906 11.492188 18.464844 18.507812 18.355469 18.898438 C 18.25 19.292969 18.035156 19.449219 17.183594 19.914062 C 16.726562 20.160156 16.144531 20.527344 15.695312 20.8125 C 15.304688 21.058594 15.007812 21.242188 14.980469 21.234375 C 14.910156 21.210938 14.898438 19.015625 14.980469 18.90625 C 15.03125 18.839844 15.449219 18.640625 15.796875 18.46875 C 16.023438 18.359375 16.222656 18.261719 16.269531 18.226562 C 16.367188 18.148438 16.375 18.046875 16.394531 17.832031 L 16.394531 17.828125 C 16.398438 17.808594 16.398438 17.785156 16.398438 17.761719 C 16.40625 17.484375 16.347656 12.082031 16.347656 12.082031 Z M 14.242188 16.898438 L 15.6875 16.125 L 15.6875 14.082031 C 15.6875 14.074219 15.6875 14.066406 15.6875 14.054688 C 15.6875 14.050781 15.6875 14.046875 15.6875 14.042969 C 15.6875 13.855469 15.6875 13.78125 15.484375 13.925781 C 15.359375 14.015625 14.710938 14.398438 14.078125 14.769531 C 13.59375 15.054688 13.125 15.332031 12.917969 15.457031 C 12.441406 15.753906 12.386719 15.859375 12.371094 16.285156 C 12.363281 16.546875 12.363281 20.347656 12.367188 23.382812 L 12.355469 23.382812 L 12.355469 30.15625 L 14.234375 30.554688 L 14.234375 26.46875 L 18.496094 23.925781 C 18.496094 23.925781 21.925781 22 22.136719 21.816406 C 22.351562 21.628906 22.46875 21.507812 22.484375 21.226562 C 22.496094 20.984375 22.488281 13.078125 22.484375 10.84375 L 22.484375 10.789062 C 22.484375 10.492188 22.484375 10.304688 22.484375 10.269531 L 22.484375 10.230469 C 22.484375 9.980469 22.484375 9.875 22.207031 9.976562 C 21.914062 10.085938 19.101562 11.738281 19.03125 11.808594 C 18.980469 11.863281 18.988281 12.496094 18.996094 12.988281 C 19 13.140625 19 13.28125 19 13.386719 C 19 13.828125 18.992188 14.105469 18.992188 14.105469 L 20.453125 13.386719 L 20.453125 20.457031 C 20.453125 20.457031 14.988281 23.742188 14.683594 23.925781 C 14.375 24.113281 14.28125 24.144531 14.242188 23.925781 C 14.238281 23.898438 14.234375 23.742188 14.234375 23.496094 L 14.234375 23.382812 L 14.230469 23.382812 C 14.21875 21.726562 14.242188 16.898438 14.242188 16.898438 Z M 14.242188 16.898438 "/>
</g>
</svg>
